<svg class="chart linechart linechart--simple" width="982" height="350"><g transform="translate(80,10)"><g class="axis axis--x" transform="translate(0,320)" fill="none" font-size="10" font-family="sans-serif" text-anchor="middle"><path class="domain" stroke="#000" d="M0.5,6V0.5H892.5V6"></path><g class="tick" opacity="1" transform="translate(0.5,0)"><line stroke="#000" y2="6"></line><text fill="#000" y="9" dy="0.71em">2001</text></g><g class="tick" opacity="1" transform="translate(64.5,0)"><line stroke="#000" y2="6"></line><text fill="#000" y="9" dy="0.71em">2002</text></g><g class="tick" opacity="1" transform="translate(127.5,0)"><line stroke="#000" y2="6"></line><text fill="#000" y="9" dy="0.71em">2003</text></g><g class="tick" opacity="1" transform="translate(191.5,0)"><line stroke="#000" y2="6"></line><text fill="#000" y="9" dy="0.71em">2004</text></g><g class="tick" opacity="1" transform="translate(255.5,0)"><line stroke="#000" y2="6"></line><text fill="#000" y="9" dy="0.71em">2005</text></g><g class="tick" opacity="1" transform="translate(319.5,0)"><line stroke="#000" y2="6"></line><text fill="#000" y="9" dy="0.71em">2006</text></g><g class="tick" opacity="1" transform="translate(382.5,0)"><line stroke="#000" y2="6"></line><text fill="#000" y="9" dy="0.71em">2007</text></g><g class="tick" opacity="1" transform="translate(446.5,0)"><line stroke="#000" y2="6"></line><text fill="#000" y="9" dy="0.71em">2008</text></g><g class="tick" opacity="1" transform="translate(510.5,0)"><line stroke="#000" y2="6"></line><text fill="#000" y="9" dy="0.71em">2009</text></g><g class="tick" opacity="1" transform="translate(573.5,0)"><line stroke="#000" y2="6"></line><text fill="#000" y="9" dy="0.71em">2010</text></g><g class="tick" opacity="1" transform="translate(637.5,0)"><line stroke="#000" y2="6"></line><text fill="#000" y="9" dy="0.71em">2011</text></g><g class="tick" opacity="1" transform="translate(701.5,0)"><line stroke="#000" y2="6"></line><text fill="#000" y="9" dy="0.71em">2012</text></g><g class="tick" opacity="1" transform="translate(765.5,0)"><line stroke="#000" y2="6"></line><text fill="#000" y="9" dy="0.71em">2013</text></g><g class="tick" opacity="1" transform="translate(828.5,0)"><line stroke="#000" y2="6"></line><text fill="#000" y="9" dy="0.71em">2014</text></g><g class="tick" opacity="1" transform="translate(892.5,0)"><line stroke="#000" y2="6"></line><text fill="#000" y="9" dy="0.71em">2015</text></g></g><g class="axis axis--y" fill="none" font-size="10" font-family="sans-serif" text-anchor="end"><path class="domain" stroke="#000" d="M-6,320.5H0.5V0.5H-6"></path><g class="tick" opacity="1" transform="translate(0,320.5)"><line stroke="#000" x2="-6"></line><text fill="#000" x="-9" dy="0.32em">0</text></g><g class="tick" opacity="1" transform="translate(0,297.5)"><line stroke="#000" x2="-6"></line><text fill="#000" x="-9" dy="0.32em">200</text></g><g class="tick" opacity="1" transform="translate(0,274.5)"><line stroke="#000" x2="-6"></line><text fill="#000" x="-9" dy="0.32em">400</text></g><g class="tick" opacity="1" transform="translate(0,251.5)"><line stroke="#000" x2="-6"></line><text fill="#000" x="-9" dy="0.32em">600</text></g><g class="tick" opacity="1" transform="translate(0,228.5)"><line stroke="#000" x2="-6"></line><text fill="#000" x="-9" dy="0.32em">800</text></g><g class="tick" opacity="1" transform="translate(0,205.5)"><line stroke="#000" x2="-6"></line><text fill="#000" x="-9" dy="0.32em">1,000</text></g><g class="tick" opacity="1" transform="translate(0,182.5)"><line stroke="#000" x2="-6"></line><text fill="#000" x="-9" dy="0.32em">1,200</text></g><g class="tick" opacity="1" transform="translate(0,159.5)"><line stroke="#000" x2="-6"></line><text fill="#000" x="-9" dy="0.32em">1,400</text></g><g class="tick" opacity="1" transform="translate(0,135.5)"><line stroke="#000" x2="-6"></line><text fill="#000" x="-9" dy="0.32em">1,600</text></g><g class="tick" opacity="1" transform="translate(0,112.5)"><line stroke="#000" x2="-6"></line><text fill="#000" x="-9" dy="0.32em">1,800</text></g><g class="tick" opacity="1" transform="translate(0,89.5)"><line stroke="#000" x2="-6"></line><text fill="#000" x="-9" dy="0.32em">2,000</text></g><g class="tick" opacity="1" transform="translate(0,66.5)"><line stroke="#000" x2="-6"></line><text fill="#000" x="-9" dy="0.32em">2,200</text></g><g class="tick" opacity="1" transform="translate(0,43.5)"><line stroke="#000" x2="-6"></line><text fill="#000" x="-9" dy="0.32em">2,400</text></g><g class="tick" opacity="1" transform="translate(0,20.5)"><line stroke="#000" x2="-6"></line><text fill="#000" x="-9" dy="0.32em">2,600</text></g></g><g class="lineg"><path class="line" style="stroke: red;" d="M0,320L64,295L127,299L191,253L255,280L319,256L382,224L446,268L510,278L573,279L637,294L701,202L765,84L828,0L892,3"></path></g><g class="lineg"><path class="line" style="stroke: blue;" d="M0,320L64,317L127,317L191,317L255,282L319,312L382,307L446,313L510,304L573,312L637,164L701,292L765,298L828,297L892,302"></path></g></g></svg>